<svg width="95" height="95" viewBox="0 0 95 95" fill="none" xmlns="http://www.w3.org/2000/svg">
<rect width="95" height="95" rx="47.5" fill="white"/>
<path d="M38.6343 43.424C38.8689 41.12 39.3703 39.2853 40.1383 37.92C40.9276 36.5333 41.9516 35.552 43.2103 34.976C44.4689 34.3787 45.9623 34.08 47.6903 34.08C49.7596 34.08 51.3809 34.4533 52.5543 35.2C53.7489 35.9467 54.5703 36.9493 55.0183 38.208C55.4876 39.4453 55.7222 40.9387 55.7222 42.688C55.7222 44.1173 55.3383 45.4933 54.5703 46.816C53.8236 48.1173 52.5969 49.4933 50.8903 50.944C49.2049 52.3947 46.9009 54.0587 43.9783 55.936H56.4903V60H38.5063V55.936C42.0689 53.504 44.7569 51.5627 46.5703 50.112C48.4049 48.64 49.7063 47.3387 50.4743 46.208C51.2636 45.056 51.6583 43.8827 51.6583 42.688C51.6583 41.2373 51.3489 40.128 50.7303 39.36C50.1116 38.5707 49.0983 38.176 47.6903 38.176C46.1756 38.176 45.0236 38.5707 44.2343 39.36C43.4449 40.1493 42.9329 41.504 42.6983 43.424H38.6343Z" fill="#4A7062"/>
</svg>
