<svg width="80" height="80" viewBox="0 0 80 80" fill="none" xmlns="http://www.w3.org/2000/svg">
<rect width="80" height="80" rx="40" fill="#629482"/>
<path d="M31.6884 36.82C31.9084 34.56 32.3884 32.76 33.1284 31.42C33.8684 30.06 34.8284 29.1 36.0084 28.54C37.1884 27.98 38.6184 27.7 40.2984 27.7C42.1784 27.7 43.6584 28.05 44.7384 28.75C45.8184 29.43 46.5584 30.33 46.9584 31.45C47.3784 32.57 47.5884 33.86 47.5884 35.32C47.5884 36.78 47.2084 38.2 46.4484 39.58C45.6884 40.94 44.4184 42.4 42.6384 43.96C40.8584 45.52 38.3984 47.31 35.2584 49.33H48.4284V52H31.5684V49.33C35.0884 46.91 37.7884 44.92 39.6684 43.36C41.5484 41.78 42.8884 40.37 43.6884 39.13C44.5084 37.87 44.9184 36.6 44.9184 35.32C44.9184 33.86 44.5684 32.68 43.8684 31.78C43.1884 30.88 41.9984 30.43 40.2984 30.43C38.4784 30.43 37.0884 30.91 36.1284 31.87C35.1884 32.83 34.6084 34.48 34.3884 36.82H31.6884Z" fill="white"/>
</svg>
