<svg width="96" height="96" viewBox="0 0 96 96" fill="none" xmlns="http://www.w3.org/2000/svg">
<rect width="96" height="96" rx="48" fill="white"/>
<path d="M39.1343 43.924C39.3689 41.62 39.8703 39.7853 40.6383 38.42C41.4276 37.0333 42.4516 36.052 43.7103 35.476C44.9689 34.8787 46.4623 34.58 48.1903 34.58C50.2596 34.58 51.8809 34.9533 53.0543 35.7C54.2489 36.4467 55.0703 37.4493 55.5183 38.708C55.9876 39.9453 56.2222 41.4387 56.2222 43.188C56.2222 44.6173 55.8383 45.9933 55.0703 47.316C54.3236 48.6173 53.0969 49.9933 51.3903 51.444C49.7049 52.8947 47.4009 54.5587 44.4783 56.436H56.9903V60.5H39.0063V56.436C42.5689 54.004 45.2569 52.0627 47.0703 50.612C48.9049 49.14 50.2063 47.8387 50.9743 46.708C51.7636 45.556 52.1583 44.3827 52.1583 43.188C52.1583 41.7373 51.8489 40.628 51.2303 39.86C50.6116 39.0707 49.5983 38.676 48.1903 38.676C46.6756 38.676 45.5236 39.0707 44.7343 39.86C43.9449 40.6493 43.4329 42.004 43.1983 43.924H39.1343Z" fill="#49ADAD"/>
</svg>
