<svg width="96" height="96" viewBox="0 0 96 96" fill="none" xmlns="http://www.w3.org/2000/svg">
<rect width="96" height="96" rx="48" fill="white"/>
<path d="M41.7471 51.7C42.1951 52.8093 42.6645 53.7053 43.1551 54.388C43.6671 55.0707 44.2751 55.5827 44.9791 55.924C45.6831 56.2653 46.5578 56.436 47.6031 56.436C48.6271 56.436 49.5551 56.244 50.3871 55.86C51.2405 55.476 51.9125 54.8893 52.4031 54.1C52.8938 53.2893 53.1391 52.308 53.1391 51.156C53.1391 49.8547 52.7018 48.8947 51.8271 48.276C50.9525 47.636 49.8325 47.316 48.4671 47.316C47.1231 47.316 45.7471 47.5933 44.3391 48.148L42.6751 43.988L50.7391 38.58H39.8271V34.9H56.6591V38.58L46.5151 44.724C48.6911 44.3613 50.5791 44.3827 52.1791 44.788C53.8005 45.1933 55.0378 45.94 55.8911 47.028C56.7658 48.116 57.2031 49.492 57.2031 51.156C57.2031 53.1187 56.8191 54.804 56.0511 56.212C55.3045 57.62 54.2058 58.6867 52.7551 59.412C51.3258 60.1373 49.6085 60.5 47.6031 60.5C45.4698 60.5 43.6565 59.9347 42.1631 58.804C40.6698 57.652 39.5498 55.9347 38.8031 53.652L41.7471 51.7Z" fill="#49ADAD"/>
</svg>
