<svg width="80" height="80" viewBox="0 0 80 80" fill="none" xmlns="http://www.w3.org/2000/svg">
<rect width="80" height="80" rx="40" fill="#629482"/>
<path d="M33.7109 44.71C34.1509 45.73 34.6509 46.58 35.2109 47.26C35.7909 47.94 36.4509 48.46 37.1909 48.82C37.9509 49.16 38.8209 49.33 39.8009 49.33C40.9809 49.33 42.0109 49.11 42.8909 48.67C43.7709 48.21 44.4509 47.54 44.9309 46.66C45.4109 45.76 45.6509 44.66 45.6509 43.36C45.6509 41.88 45.2309 40.76 44.3909 40C43.5709 39.22 42.5309 38.79 41.2709 38.71C40.0309 38.63 38.8009 38.84 37.5809 39.34L36.3809 37.06L44.1509 30.58H32.7209V28H47.8109V30.58L39.8909 36.82C41.5109 36.56 42.9609 36.65 44.2409 37.09C45.5209 37.51 46.5209 38.26 47.2409 39.34C47.9609 40.4 48.3209 41.74 48.3209 43.36C48.3209 45.18 48.0009 46.74 47.3609 48.04C46.7209 49.34 45.7609 50.33 44.4809 51.01C43.2209 51.67 41.6609 52 39.8009 52C37.8609 52 36.2209 51.51 34.8809 50.53C33.5409 49.53 32.4709 48.08 31.6709 46.18L33.7109 44.71Z" fill="white"/>
</svg>
