<svg width="95" height="95" viewBox="0 0 95 95" fill="none" xmlns="http://www.w3.org/2000/svg">
<rect width="95" height="95" rx="47.5" fill="white"/>
<path d="M41.2471 51.2C41.6951 52.3093 42.1645 53.2053 42.6551 53.888C43.1671 54.5707 43.7751 55.0827 44.4791 55.424C45.1831 55.7653 46.0578 55.936 47.1031 55.936C48.1271 55.936 49.0551 55.744 49.8871 55.36C50.7405 54.976 51.4125 54.3893 51.9031 53.6C52.3938 52.7893 52.6391 51.808 52.6391 50.656C52.6391 49.3547 52.2018 48.3947 51.3271 47.776C50.4525 47.136 49.3325 46.816 47.9671 46.816C46.6231 46.816 45.2471 47.0933 43.8391 47.648L42.1751 43.488L50.2391 38.08H39.3271V34.4H56.1591V38.08L46.0151 44.224C48.1911 43.8613 50.0791 43.8827 51.6791 44.288C53.3005 44.6933 54.5378 45.44 55.3911 46.528C56.2658 47.616 56.7031 48.992 56.7031 50.656C56.7031 52.6187 56.3191 54.304 55.5511 55.712C54.8045 57.12 53.7058 58.1867 52.2551 58.912C50.8258 59.6373 49.1085 60 47.1031 60C44.9698 60 43.1565 59.4347 41.6631 58.304C40.1698 57.152 39.0498 55.4347 38.3031 53.152L41.2471 51.2Z" fill="#4A7062"/>
</svg>
