<svg width="95" height="95" viewBox="0 0 95 95" fill="none" xmlns="http://www.w3.org/2000/svg">
<rect width="95" height="95" rx="47.5" fill="white"/>
<path d="M40.794 52C41.178 52.9813 41.6153 53.7813 42.106 54.4C42.618 54.9973 43.29 55.456 44.122 55.776C44.954 56.096 46.01 56.256 47.29 56.256C49.2527 56.256 50.7033 55.776 51.642 54.816C52.602 53.8347 53.082 52.4693 53.082 50.72C53.082 49.184 52.6553 48.032 51.802 47.264C50.9487 46.4747 49.7647 46.08 48.25 46.08C47.098 46.08 46.01 46.2933 44.986 46.72C43.9833 47.1467 42.8207 47.84 41.498 48.8L38.682 48.128L39.642 34.4H43.45L42.49 44.48C43.45 43.8827 44.2393 43.4347 44.858 43.136C45.4767 42.816 46.1273 42.5707 46.81 42.4C47.514 42.2293 48.314 42.144 49.21 42.144C50.7887 42.144 52.1753 42.5067 53.37 43.232C54.586 43.9573 55.514 44.9707 56.154 46.272C56.8153 47.5733 57.146 49.056 57.146 50.72C57.146 53.792 56.3353 56.16 54.714 57.824C53.114 59.488 50.6393 60.32 47.29 60.32C45.3913 60.32 43.834 60.0533 42.618 59.52C41.4233 58.9867 40.474 58.272 39.77 57.376C39.066 56.4587 38.426 55.3067 37.85 53.92L40.794 52ZM41.498 38.464V34.4H55.962V38.464H41.498Z" fill="#4A7062"/>
</svg>
