<svg width="96" height="96" viewBox="0 0 96 96" fill="none" xmlns="http://www.w3.org/2000/svg">
<rect width="96" height="96" rx="48" fill="white"/>
<path d="M41.294 52.5C41.678 53.4813 42.1153 54.2813 42.606 54.9C43.118 55.4973 43.79 55.956 44.622 56.276C45.454 56.596 46.51 56.756 47.79 56.756C49.7527 56.756 51.2033 56.276 52.142 55.316C53.102 54.3347 53.582 52.9693 53.582 51.22C53.582 49.684 53.1553 48.532 52.302 47.764C51.4487 46.9747 50.2647 46.58 48.75 46.58C47.598 46.58 46.51 46.7933 45.486 47.22C44.4833 47.6467 43.3207 48.34 41.998 49.3L39.182 48.628L40.142 34.9H43.95L42.99 44.98C43.95 44.3827 44.7393 43.9347 45.358 43.636C45.9767 43.316 46.6273 43.0707 47.31 42.9C48.014 42.7293 48.814 42.644 49.71 42.644C51.2887 42.644 52.6753 43.0067 53.87 43.732C55.086 44.4573 56.014 45.4707 56.654 46.772C57.3153 48.0733 57.646 49.556 57.646 51.22C57.646 54.292 56.8353 56.66 55.214 58.324C53.614 59.988 51.1393 60.82 47.79 60.82C45.8913 60.82 44.334 60.5533 43.118 60.02C41.9233 59.4867 40.974 58.772 40.27 57.876C39.566 56.9587 38.926 55.8067 38.35 54.42L41.294 52.5ZM41.998 38.964V34.9H56.462V38.964H41.998Z" fill="#49ADAD"/>
</svg>
