<svg width="80" height="80" viewBox="0 0 80 80" fill="none" xmlns="http://www.w3.org/2000/svg">
<rect width="80" height="80" rx="40" fill="#629482"/>
<path d="M33.0416 44.98C33.5323 46.0893 34.0656 47.0067 34.6416 47.732C35.239 48.436 35.9856 48.9907 36.8816 49.396C37.7776 49.78 38.8763 49.972 40.1776 49.972C42.119 49.972 43.623 49.3853 44.6896 48.212C45.7563 47.0387 46.2896 45.4067 46.2896 43.316C46.2896 41.396 45.767 39.988 44.7216 39.092C43.6763 38.1747 42.2683 37.716 40.4976 37.716C39.239 37.716 38.087 37.9507 37.0416 38.42C36.0176 38.8893 34.8336 39.636 33.4896 40.66L31.8256 39.892L32.7856 26.9H35.4416L34.4816 37.236C35.335 36.6813 36.0816 36.244 36.7216 35.924C37.3616 35.5827 38.0016 35.3267 38.6416 35.156C39.303 34.9853 40.0283 34.9 40.8176 34.9C42.5243 34.9 44.007 35.252 45.2656 35.956C46.5243 36.6387 47.4843 37.62 48.1456 38.9C48.807 40.18 49.1376 41.652 49.1376 43.316C49.1376 46.3027 48.391 48.6387 46.8976 50.324C45.4043 51.988 43.1643 52.82 40.1776 52.82C38.4283 52.82 36.967 52.564 35.7936 52.052C34.6203 51.5187 33.6496 50.804 32.8816 49.908C32.135 49.012 31.463 47.892 30.8656 46.548L33.0416 44.98ZM33.4896 29.748V26.9H47.9536V29.748H33.4896Z" fill="white"/>
</svg>
