<svg width="80" height="80" viewBox="0 0 80 80" fill="none" xmlns="http://www.w3.org/2000/svg">
<rect width="80" height="80" rx="40" fill="#629482"/>
<path d="M30.975 40.372C30.9537 37.1507 31.3377 34.516 32.127 32.468C32.9377 30.3987 34.0257 28.9053 35.391 27.988C36.7777 27.0493 38.3563 26.58 40.127 26.58C42.2603 26.58 43.9883 27.0813 45.311 28.084C46.655 29.0653 47.807 30.5693 48.767 32.596L46.527 34.196C45.7377 32.5747 44.8737 31.38 43.935 30.612C42.9963 29.844 41.727 29.46 40.127 29.46C38.9963 29.46 37.9403 29.78 36.959 30.42C35.999 31.0387 35.2097 32.0413 34.591 33.428C33.9723 34.7933 33.663 36.532 33.663 38.644C34.367 37.428 35.327 36.5 36.543 35.86C37.7803 35.22 39.071 34.9 40.415 34.9C42.1217 34.9 43.615 35.252 44.895 35.956C46.1963 36.6387 47.199 37.62 47.903 38.9C48.607 40.18 48.959 41.6733 48.959 43.38C48.959 45.3213 48.607 47.0067 47.903 48.436C47.199 49.844 46.1857 50.932 44.863 51.7C43.5617 52.4467 42.015 52.82 40.223 52.82C38.3883 52.82 36.799 52.4573 35.455 51.732C34.111 51.0067 33.0337 49.7267 32.223 47.892C31.4123 46.0573 30.9963 43.5507 30.975 40.372ZM33.983 43.38C33.983 45.6413 34.527 47.3053 35.615 48.372C36.703 49.4173 38.2177 49.94 40.159 49.94C41.9937 49.94 43.4443 49.4067 44.511 48.34C45.5777 47.2733 46.111 45.62 46.111 43.38C46.111 41.4173 45.5457 39.956 44.415 38.996C43.3057 38.036 41.887 37.556 40.159 37.556C39.071 37.556 38.0577 37.78 37.119 38.228C36.1803 38.676 35.423 39.348 34.847 40.244C34.271 41.1187 33.983 42.164 33.983 43.38Z" fill="white"/>
</svg>
