<svg width="95" height="95" viewBox="0 0 95 95" fill="none" xmlns="http://www.w3.org/2000/svg">
<rect width="95" height="95" rx="47.5" fill="white"/>
<path d="M37.85 47.872C37.8287 44.672 38.2767 42.048 39.194 40C40.1113 37.9307 41.3167 36.4267 42.81 35.488C44.3247 34.5493 45.9567 34.08 47.706 34.08C49.9033 34.08 51.7593 34.528 53.274 35.424C54.81 36.32 56.058 37.7387 57.018 39.68L53.882 41.792C53.178 40.512 52.3673 39.584 51.45 39.008C50.5327 38.432 49.2847 38.144 47.706 38.144C46.5967 38.144 45.594 38.4213 44.698 38.976C43.8233 39.5307 43.1087 40.4053 42.554 41.6C41.9993 42.7947 41.7113 44.3093 41.69 46.144C42.3513 44.736 43.2687 43.7227 44.442 43.104C45.6153 42.464 46.9167 42.144 48.346 42.144C49.946 42.144 51.4073 42.5067 52.73 43.232C54.0527 43.936 55.0873 44.96 55.834 46.304C56.602 47.6267 56.986 49.1627 56.986 50.912C56.986 52.8533 56.5913 54.528 55.802 55.936C55.034 57.344 53.946 58.432 52.538 59.2C51.1513 59.9467 49.562 60.32 47.77 60.32C45.8073 60.32 44.1007 59.9467 42.65 59.2C41.1993 58.432 40.0367 57.1307 39.162 55.296C38.3087 53.4613 37.8713 50.9867 37.85 47.872ZM41.946 50.912C41.946 52.7467 42.426 54.1013 43.386 54.976C44.3673 55.8293 45.754 56.256 47.546 56.256C49.274 56.256 50.5967 55.8293 51.514 54.976C52.4527 54.1227 52.922 52.768 52.922 50.912C52.922 49.2267 52.442 47.9787 51.482 47.168C50.522 46.3573 49.21 45.952 47.546 45.952C46.4793 45.952 45.5193 46.144 44.666 46.528C43.834 46.8907 43.1727 47.4453 42.682 48.192C42.1913 48.9173 41.946 49.824 41.946 50.912Z" fill="#4A7062"/>
</svg>
