<svg width="96" height="96" viewBox="0 0 96 96" fill="none" xmlns="http://www.w3.org/2000/svg">
<rect width="96" height="96" rx="48" fill="white"/>
<path d="M38.35 48.372C38.3287 45.172 38.7767 42.548 39.694 40.5C40.6113 38.4307 41.8167 36.9267 43.31 35.988C44.8247 35.0493 46.4567 34.58 48.206 34.58C50.4033 34.58 52.2593 35.028 53.774 35.924C55.31 36.82 56.558 38.2387 57.518 40.18L54.382 42.292C53.678 41.012 52.8673 40.084 51.95 39.508C51.0327 38.932 49.7847 38.644 48.206 38.644C47.0967 38.644 46.094 38.9213 45.198 39.476C44.3233 40.0307 43.6087 40.9053 43.054 42.1C42.4993 43.2947 42.2113 44.8093 42.19 46.644C42.8513 45.236 43.7687 44.2227 44.942 43.604C46.1153 42.964 47.4167 42.644 48.846 42.644C50.446 42.644 51.9073 43.0067 53.23 43.732C54.5527 44.436 55.5873 45.46 56.334 46.804C57.102 48.1267 57.486 49.6627 57.486 51.412C57.486 53.3533 57.0913 55.028 56.302 56.436C55.534 57.844 54.446 58.932 53.038 59.7C51.6513 60.4467 50.062 60.82 48.27 60.82C46.3073 60.82 44.6007 60.4467 43.15 59.7C41.6993 58.932 40.5367 57.6307 39.662 55.796C38.8087 53.9613 38.3713 51.4867 38.35 48.372ZM42.446 51.412C42.446 53.2467 42.926 54.6013 43.886 55.476C44.8673 56.3293 46.254 56.756 48.046 56.756C49.774 56.756 51.0967 56.3293 52.014 55.476C52.9527 54.6227 53.422 53.268 53.422 51.412C53.422 49.7267 52.942 48.4787 51.982 47.668C51.022 46.8573 49.71 46.452 48.046 46.452C46.9793 46.452 46.0193 46.644 45.166 47.028C44.334 47.3907 43.6727 47.9453 43.182 48.692C42.6913 49.4173 42.446 50.324 42.446 51.412Z" fill="#49ADAD"/>
</svg>
