<svg width="96" height="96" viewBox="0 0 96 96" fill="none" xmlns="http://www.w3.org/2000/svg">
<rect width="96" height="96" rx="48" fill="white"/>
<path d="M37.6625 53.012C37.6625 51.4333 38.1852 50.0467 39.2305 48.852C40.2758 47.6573 41.7905 46.7293 43.7745 46.068C42.4518 45.684 41.4172 45.012 40.6705 44.052C39.9452 43.092 39.5825 41.9293 39.5825 40.564C39.5825 39.4333 39.9132 38.42 40.5745 37.524C41.2572 36.6067 42.2278 35.892 43.4865 35.38C44.7665 34.8467 46.2812 34.58 48.0305 34.58C49.7798 34.58 51.2838 34.8467 52.5425 35.38C53.8012 35.892 54.7612 36.6067 55.4225 37.524C56.0838 38.42 56.4145 39.4333 56.4145 40.564C56.4145 42.0787 56.0625 43.2733 55.3585 44.148C54.6758 45.0227 53.6412 45.6627 52.2545 46.068C54.2172 46.7293 55.7212 47.6573 56.7665 48.852C57.8118 50.0253 58.3345 51.412 58.3345 53.012C58.3345 54.5053 57.9292 55.8493 57.1185 57.044C56.3292 58.2173 55.1558 59.1453 53.5985 59.828C52.0412 60.4893 50.1852 60.82 48.0305 60.82C45.8758 60.82 44.0092 60.4893 42.4305 59.828C40.8732 59.1453 39.6892 58.2173 38.8785 57.044C38.0678 55.8493 37.6625 54.5053 37.6625 53.012ZM41.6945 52.532C41.6945 53.9613 42.2492 55.028 43.3585 55.732C44.4678 56.436 46.0252 56.788 48.0305 56.788C50.0145 56.788 51.5505 56.436 52.6385 55.732C53.7478 55.028 54.3025 53.9613 54.3025 52.532C54.3025 51.5933 54.0358 50.7933 53.5025 50.132C52.9692 49.4493 52.2225 48.9373 51.2625 48.596C50.3238 48.2333 49.2465 48.052 48.0305 48.052C46.8145 48.052 45.7265 48.2333 44.7665 48.596C43.8278 48.9373 43.0812 49.4493 42.5265 50.132C41.9718 50.7933 41.6945 51.5933 41.6945 52.532ZM43.4225 40.98C43.4225 42.004 43.7958 42.772 44.5425 43.284C45.3105 43.796 46.4732 44.052 48.0305 44.052C51.0598 44.052 52.5745 43.028 52.5745 40.98C52.5745 39.9133 52.1905 39.124 51.4225 38.612C50.6545 38.1 49.5238 37.844 48.0305 37.844C46.4732 37.844 45.3105 38.1 44.5425 38.612C43.7958 39.124 43.4225 39.9133 43.4225 40.98Z" fill="#49ADAD"/>
</svg>
