<svg width="95" height="95" viewBox="0 0 95 95" fill="none" xmlns="http://www.w3.org/2000/svg">
<rect width="95" height="95" rx="47.5" fill="white"/>
<path d="M37.1625 52.512C37.1625 50.9333 37.6852 49.5467 38.7305 48.352C39.7758 47.1573 41.2905 46.2293 43.2745 45.568C41.9518 45.184 40.9172 44.512 40.1705 43.552C39.4452 42.592 39.0825 41.4293 39.0825 40.064C39.0825 38.9333 39.4132 37.92 40.0745 37.024C40.7572 36.1067 41.7278 35.392 42.9865 34.88C44.2665 34.3467 45.7812 34.08 47.5305 34.08C49.2798 34.08 50.7838 34.3467 52.0425 34.88C53.3012 35.392 54.2612 36.1067 54.9225 37.024C55.5838 37.92 55.9145 38.9333 55.9145 40.064C55.9145 41.5787 55.5625 42.7733 54.8585 43.648C54.1758 44.5227 53.1412 45.1627 51.7545 45.568C53.7172 46.2293 55.2212 47.1573 56.2665 48.352C57.3118 49.5253 57.8345 50.912 57.8345 52.512C57.8345 54.0053 57.4292 55.3493 56.6185 56.544C55.8292 57.7173 54.6558 58.6453 53.0985 59.328C51.5412 59.9893 49.6852 60.32 47.5305 60.32C45.3758 60.32 43.5092 59.9893 41.9305 59.328C40.3732 58.6453 39.1892 57.7173 38.3785 56.544C37.5678 55.3493 37.1625 54.0053 37.1625 52.512ZM41.1945 52.032C41.1945 53.4613 41.7492 54.528 42.8585 55.232C43.9678 55.936 45.5252 56.288 47.5305 56.288C49.5145 56.288 51.0505 55.936 52.1385 55.232C53.2478 54.528 53.8025 53.4613 53.8025 52.032C53.8025 51.0933 53.5358 50.2933 53.0025 49.632C52.4692 48.9493 51.7225 48.4373 50.7625 48.096C49.8238 47.7333 48.7465 47.552 47.5305 47.552C46.3145 47.552 45.2265 47.7333 44.2665 48.096C43.3278 48.4373 42.5812 48.9493 42.0265 49.632C41.4718 50.2933 41.1945 51.0933 41.1945 52.032ZM42.9225 40.48C42.9225 41.504 43.2958 42.272 44.0425 42.784C44.8105 43.296 45.9732 43.552 47.5305 43.552C50.5598 43.552 52.0745 42.528 52.0745 40.48C52.0745 39.4133 51.6905 38.624 50.9225 38.112C50.1545 37.6 49.0238 37.344 47.5305 37.344C45.9732 37.344 44.8105 37.6 44.0425 38.112C43.2958 38.624 42.9225 39.4133 42.9225 40.48Z" fill="#4A7062"/>
</svg>
