<svg width="80" height="80" viewBox="0 0 80 80" fill="none" xmlns="http://www.w3.org/2000/svg">
<rect width="80" height="80" rx="40" fill="#629482"/>
<path d="M30.0063 45.012C30.0063 43.3693 30.4969 41.94 31.4783 40.724C32.4809 39.508 33.9103 38.548 35.7663 37.844C34.4863 37.396 33.5263 36.7347 32.8863 35.86C32.2463 34.9853 31.9263 33.972 31.9263 32.82C31.9263 31.5827 32.2356 30.4947 32.8543 29.556C33.4729 28.6173 34.3796 27.892 35.5743 27.38C36.7903 26.8467 38.2729 26.58 40.0223 26.58C41.7716 26.58 43.2436 26.8467 44.4383 27.38C45.6543 27.892 46.5609 28.6173 47.1583 29.556C47.7769 30.4947 48.0863 31.5827 48.0863 32.82C48.0863 34.0147 47.7663 35.0387 47.1263 35.892C46.5076 36.7453 45.5476 37.396 44.2463 37.844C46.1023 38.548 47.5209 39.508 48.5023 40.724C49.5049 41.94 50.0063 43.3693 50.0063 45.012C50.0063 46.5267 49.6223 47.8707 48.8543 49.044C48.1076 50.2173 46.9876 51.1453 45.4943 51.828C44.0009 52.4893 42.1769 52.82 40.0223 52.82C37.8676 52.82 36.0329 52.4893 34.5183 51.828C33.0249 51.1453 31.8943 50.2173 31.1263 49.044C30.3796 47.8707 30.0063 46.5267 30.0063 45.012ZM32.7903 44.852C32.7903 46.5587 33.4303 47.8493 34.7103 48.724C35.9903 49.5987 37.7609 50.036 40.0223 50.036C42.2623 50.036 44.0116 49.5987 45.2703 48.724C46.5503 47.8493 47.1903 46.5587 47.1903 44.852C47.1903 43.7213 46.8703 42.74 46.2303 41.908C45.5903 41.0547 44.7156 40.4147 43.6063 39.988C42.5183 39.54 41.3236 39.316 40.0223 39.316C38.7209 39.316 37.5156 39.54 36.4062 39.988C35.3183 40.4147 34.4436 41.0547 33.7823 41.908C33.1209 42.74 32.7903 43.7213 32.7903 44.852ZM34.6463 32.948C34.6463 34.1427 35.0836 35.0493 35.9583 35.668C36.8543 36.2653 38.2089 36.564 40.0223 36.564C43.5636 36.564 45.3343 35.3587 45.3343 32.948C45.3343 31.7107 44.8969 30.7613 44.0223 30.1C43.1476 29.4387 41.8143 29.108 40.0223 29.108C38.2089 29.108 36.8543 29.4387 35.9583 30.1C35.0836 30.7613 34.6463 31.7107 34.6463 32.948Z" fill="white"/>
</svg>
