<svg width="96" height="96" viewBox="0 0 96 96" fill="none" xmlns="http://www.w3.org/2000/svg">
<rect width="96" height="96" rx="48" fill="#49ADAD"/>
<path d="M38.6697 32C34.9872 32 32.0027 34.9845 32.0027 38.6669C32.0027 42.3494 34.9872 45.3339 38.6697 45.3339C42.3505 45.3339 45.3366 42.3478 45.3366 38.6669C45.3362 34.9857 42.3501 32 38.6697 32ZM38.6697 42.667C36.4596 42.667 34.6696 40.8766 34.6696 38.6669C34.6696 36.4569 36.4596 34.6669 38.6697 34.6669C40.8793 34.6669 42.6697 36.4569 42.6697 38.6669C42.6697 40.8766 40.8793 42.667 38.6697 42.667Z" fill="#192B4C"/>
<path d="M53.1632 38.073L38.0784 53.1577L39.9642 55.0434L55.0489 39.9587L53.1632 38.073Z" fill="#192B4C"/>
<path d="M58.8229 39.9568L39.9667 58.813L41.8527 60.699L60.7089 41.8428L58.8229 39.9568Z" fill="#192B4C"/>
<path d="M42.6636 63.9997H63.9973V42.666L42.6636 63.9997ZM61.3308 61.3332H49.101L61.3308 49.1054V61.3332Z" fill="#192B4C"/>
</svg>
