<svg width="96" height="96" viewBox="0 0 96 96" fill="none" xmlns="http://www.w3.org/2000/svg">
<rect width="96" height="96" rx="48" fill="#49ADAD"/>
<path d="M59.3836 25.5H36.6171C33.6696 25.5032 30.8438 26.6754 28.7596 28.7596C26.6754 30.8438 25.5032 33.6696 25.5 36.6171V59.3829C25.5032 62.3304 26.6754 65.1562 28.7596 67.2404C30.8438 69.3246 33.6696 70.4968 36.6171 70.5H59.3836C62.331 70.4968 65.1568 69.3245 67.2408 67.2403C69.3249 65.1561 70.497 62.3303 70.5 59.3829V36.6171C70.497 33.6697 69.3249 30.8439 67.2408 28.7597C65.1568 26.6755 62.331 25.5032 59.3836 25.5ZM66.2285 59.3829C66.2265 61.1978 65.5047 62.9378 64.2215 64.2212C62.9383 65.5047 61.1985 66.2268 59.3836 66.2292H36.6171C34.8021 66.227 33.0621 65.5049 31.7787 64.2215C30.4954 62.938 29.7735 61.1979 29.7715 59.3829V36.6171C29.7735 34.8021 30.4954 33.062 31.7787 31.7785C33.0621 30.4951 34.8021 29.773 36.6171 29.7708H59.3836C61.1985 29.7732 62.9383 30.4953 64.2215 31.7788C65.5047 33.0622 66.2265 34.8022 66.2285 36.6171V59.3829Z" fill="white"/>
<path d="M47.9978 37.2832C45.8784 37.2833 43.8068 37.9119 42.0447 39.0895C40.2826 40.267 38.9092 41.9406 38.0983 43.8986C37.2874 45.8567 37.0753 48.0112 37.4888 50.0898C37.9024 52.1684 38.923 54.0776 40.4216 55.5762C41.9203 57.0747 43.8296 58.0952 45.9082 58.5086C47.9868 58.922 50.1413 58.7098 52.0993 57.8987C54.0573 57.0876 55.7308 55.7142 56.9082 53.952C58.0856 52.1899 58.7141 50.1181 58.7141 47.9988C58.7109 45.1577 57.5808 42.4339 55.5718 40.425C53.5628 38.4161 50.8389 37.2862 47.9978 37.2832ZM47.9978 54.4437C46.7231 54.4435 45.4771 54.0654 44.4174 53.3572C43.3576 52.6489 42.5317 51.6423 42.044 50.4647C41.5563 49.287 41.4288 47.9912 41.6775 46.7411C41.9263 45.4909 42.5402 44.3426 43.4415 43.4414C44.3429 42.5401 45.4912 41.9264 46.7414 41.6778C47.9916 41.4292 49.2874 41.5568 50.465 42.0446C51.6426 42.5325 52.6491 43.3585 53.3572 44.4183C54.0653 45.4782 54.4433 46.7242 54.4433 47.9988C54.4416 49.7077 53.762 51.3461 52.5536 52.5544C51.3451 53.7627 49.7067 54.4422 47.9978 54.4437Z" fill="white"/>
<path d="M59.1557 33.9844C58.5899 33.9842 58.0369 34.1519 57.5664 34.4661C57.0959 34.7803 56.7292 35.227 56.5126 35.7496C56.296 36.2722 56.2393 36.8474 56.3496 37.4023C56.4598 37.9572 56.7322 38.4669 57.1322 38.867C57.5322 39.2671 58.0419 39.5396 58.5967 39.65C59.1516 39.7604 59.7267 39.7038 60.2494 39.4873C60.7721 39.2709 61.2189 38.9043 61.5332 38.4339C61.8475 37.9635 62.0153 37.4104 62.0153 36.8447C62.0153 36.0862 61.7141 35.3588 61.1778 34.8224C60.6415 34.286 59.9142 33.9846 59.1557 33.9844Z" fill="white"/>
</svg>
