<svg width="96" height="96" viewBox="0 0 96 96" fill="none" xmlns="http://www.w3.org/2000/svg">
<rect width="96" height="96" rx="48" fill="#E26565"/>
<path d="M48 45.5293C44.9618 45.5293 42.5 47.9911 42.5 51.0293C42.5 54.0675 44.9618 56.5293 48 56.5293C51.0382 56.5293 53.5 54.0675 53.5 51.0293C53.5 47.9911 51.0382 45.5293 48 45.5293ZM48 52.8624C46.9864 52.8624 46.1668 52.0429 46.1668 51.0293C46.1668 50.0156 46.9864 49.1961 48 49.1961C49.0137 49.1961 49.8332 50.0156 49.8332 51.0293C49.8332 52.0429 49.0137 52.8624 48 52.8624Z" fill="#192B4C"/>
<path d="M66.0054 51.964C66.0213 51.6527 66.0521 51.3447 66.0521 51.0295C66.0521 44.022 62.0574 37.9654 56.2302 34.9717C56.1229 30.5068 52.4902 26.917 48 26.917C43.5098 26.917 39.8754 30.5063 39.7676 34.9717C33.9398 37.9654 29.9462 44.022 29.9462 51.0295C29.9462 51.3447 29.9787 51.6527 29.9925 51.9656C27.6099 53.4127 26 56.007 26 59.0001C26 63.5563 29.6938 67.2485 34.25 67.2501C35.6965 67.2501 37.0358 66.8459 38.2177 66.1919C41.0392 68.0141 44.3909 69.0833 48 69.0833C51.608 69.0833 54.9608 68.0146 57.7806 66.1919C58.9626 66.8459 60.3013 67.2501 61.7484 67.2501C66.3062 67.2501 70 63.5563 70 59.0001C70 56.007 68.3902 53.4105 66.0054 51.964ZM48 30.5855C50.5317 30.5855 52.5832 32.6353 52.5832 35.1686C52.5832 37.7003 50.5317 39.7518 48 39.7518C45.4684 39.7518 43.4169 37.7003 43.4169 35.1686C43.4169 32.6348 45.4684 30.5855 48 30.5855ZM34.25 63.5833C31.7184 63.5816 29.6668 61.5318 29.6668 59.0001C29.6685 56.4668 31.7184 54.417 34.25 54.4148C36.7817 54.417 38.8332 56.4663 38.8332 59.0001C38.8332 61.5318 36.7817 63.5833 34.25 63.5833ZM54.9273 63.6394C52.873 64.7702 50.5119 65.417 48 65.417C45.4865 65.417 43.127 64.7702 41.0711 63.6372C41.972 62.3155 42.5 60.7205 42.5 59.0001C42.5017 54.4401 38.8062 50.7501 34.25 50.7485C34.035 50.7485 33.8348 50.7947 33.623 50.8106C33.7006 45.6725 36.4698 41.2016 40.5805 38.7189C41.9109 41.4903 44.7198 43.4186 48 43.4186C51.2819 43.4186 54.089 41.4903 55.4189 38.7189C59.5302 41.2021 62.2978 45.6731 62.3743 50.8106C62.1631 50.7947 61.9629 50.7485 61.7478 50.7485C57.1916 50.7501 53.5 54.4417 53.4984 59.0001C53.4984 60.7205 54.0264 62.3155 54.9273 63.6394ZM61.7484 63.5833C59.2162 63.5833 57.1669 61.5318 57.1669 59.0001C57.1669 56.4668 59.2167 54.417 61.7484 54.417C64.2811 54.417 66.3332 56.4668 66.3332 59.0001C66.3332 61.5318 64.2817 63.5833 61.7484 63.5833Z" fill="#192B4C"/>
</svg>
