<svg width="96" height="96" viewBox="0 0 96 96" fill="none" xmlns="http://www.w3.org/2000/svg">
<rect width="96" height="96" rx="48" fill="white"/>
<path d="M48 26L26 48L48 70L70 48L48 26ZM31.1849 48L48 31.1849L55.1115 38.2963L52.5188 40.889L48 36.3714L36.3714 48L40.8885 52.5188L38.2958 55.1115L31.1849 48ZM54.4455 48L48 54.4471L41.5562 48L48 41.5562L54.4455 48ZM40.8885 57.7042L43.4812 55.1115L48 59.6286L59.6303 48L55.1115 43.4812L57.7042 40.8885L64.8151 48L48 64.8151L40.8885 57.7042Z" fill="#192B4C"/>
</svg>
