<svg width="96" height="96" viewBox="0 0 96 96" fill="none" xmlns="http://www.w3.org/2000/svg">
<rect width="96" height="96" rx="48" fill="white"/>
<path d="M49.8331 26V29.6806C59.1006 30.6046 66.3331 38.4537 66.3331 48C66.3331 57.5447 59.1006 65.3932 49.8331 66.3172V70C61.1252 69.0639 70 59.5786 70 48C70 36.4198 61.1252 26.9383 49.8331 26Z" fill="#192B4C"/>
<path d="M46.1668 66.3172C36.9032 65.3932 29.6668 57.5447 29.6668 48C29.6668 38.4542 36.9032 30.6046 46.1668 29.6806V26C34.877 26.9383 26 36.4198 26 48C26 59.5786 34.877 69.0639 46.1668 70V66.3172Z" fill="#192B4C"/>
<path d="M37.1652 46.1667C38.0386 40.9654 42.5503 36.9999 48.0002 36.9999C53.4502 36.9999 57.9618 40.9654 58.8352 46.1667H62.5395C61.6375 38.9337 55.4808 33.333 48.0002 33.333C40.5235 33.333 34.3646 38.9337 33.4604 46.1667H37.1652Z" fill="#192B4C"/>
<path d="M58.8352 49.833C57.9618 55.0322 53.4502 58.9999 48.0002 58.9999C42.5503 58.9999 38.0386 55.0322 37.1652 49.833H33.461C34.3646 57.0661 40.5235 62.6667 48.0002 62.6667C55.4808 62.6667 61.6375 57.0661 62.54 49.833H58.8352Z" fill="#192B4C"/>
<path d="M48 40.667C43.9504 40.667 40.6669 43.9505 40.6669 48.0001C40.6669 52.0498 43.9504 55.3333 48 55.3333C52.0513 55.3333 55.3332 52.0498 55.3332 48.0001C55.3332 43.9505 52.0513 40.667 48 40.667ZM48 51.667C45.9749 51.667 44.3332 50.0252 44.3332 48.0001C44.3332 45.975 45.9749 44.3333 48 44.3333C50.0268 44.3333 51.6669 45.975 51.6669 48.0001C51.6669 50.0252 50.0268 51.667 48 51.667Z" fill="#192B4C"/>
</svg>
